<svg version="1.1" xmlns="http://www.w3.org/2000/svg" xmlns:xlink="http://www.w3.org/1999/xlink" viewBox="0 0 172 172"><g transform=""><g fill="none" fill-rule="nonzero" stroke="none" stroke-width="none" stroke-linecap="butt" stroke-linejoin="miter" stroke-miterlimit="10" stroke-dasharray="" stroke-dashoffset="0" font-family="none" font-weight="none" font-size="none" text-anchor="none" style="mix-blend-mode: normal"><path d="M0,172v-172h172v172z" fill="none" stroke="none" stroke-width="1"></path><g><path d="M86,165.55c-43.86,0 -79.55,-35.69 -79.55,-79.55c0,-43.86 35.69,-79.55 79.55,-79.55c43.86,0 79.55,35.69 79.55,79.55c0,43.86 -35.69,79.55 -79.55,79.55z" fill="#6c62ff" stroke="none" stroke-width="1"></path><path d="M86,8.6c42.57,0 77.4,34.83 77.4,77.4c0,42.57 -34.83,77.4 -77.4,77.4c-42.57,0 -77.4,-34.83 -77.4,-77.4c0,-42.57 34.83,-77.4 77.4,-77.4M86,4.3c-45.15,0 -81.7,36.55 -81.7,81.7c0,45.15 36.55,81.7 81.7,81.7c45.15,0 81.7,-36.55 81.7,-81.7c0,-45.15 -36.55,-81.7 -81.7,-81.7z" fill="#ffffff" stroke="none" stroke-width="1"></path><path d="M48.16,86.43l24.94,24.94l56.76,-56.76" fill="none" stroke="#ffffff" stroke-width="12.9"></path></g><path d="" fill="none" stroke="none" stroke-width="1"></path></g></g></svg>